<svg width="100" height="100" viewBox="0 0 100 100" fill="none" xmlns="http://www.w3.org/2000/svg">
<path d="M84.375 100H15.625C10.5633 100 6.44531 95.882 6.44531 90.8203V34.5703C6.44531 29.5086 10.5633 25.3906 15.625 25.3906H84.375C89.4367 25.3906 93.5547 29.5086 93.5547 34.5703V90.8203C93.5547 95.882 89.4367 100 84.375 100Z" fill="#FFC700"/>
<path d="M71.875 37.5C70.257 37.5 68.9453 36.1883 68.9453 34.5703V24.8047C68.9453 14.3582 60.4465 5.85938 50 5.85938C39.5535 5.85938 31.0547 14.3582 31.0547 24.8047V34.5703C31.0547 36.1883 29.743 37.5 28.125 37.5C26.507 37.5 25.1953 36.1883 25.1953 34.5703V24.8047C25.1953 11.1273 36.3227 0 50 0C63.6773 0 74.8047 11.1273 74.8047 24.8047V34.5703C74.8047 36.1883 73.493 37.5 71.875 37.5Z" fill="#222222"/>
<path d="M50 100H84.375C89.4367 100 93.5547 95.882 93.5547 90.8203V34.5703C93.5547 29.5086 89.4367 25.3906 84.375 25.3906H50V100Z" fill="#FF5C2C"/>
<path d="M68.9453 24.8047V34.5703C68.9453 36.1883 70.257 37.5 71.875 37.5C73.493 37.5 74.8047 36.1883 74.8047 34.5703V24.8047C74.8047 11.1273 63.6773 0 50 0V5.85938C60.4465 5.85938 68.9453 14.3582 68.9453 24.8047Z" fill="#222222"/>
<path d="M50 87.5C36.3227 87.5 25.1953 76.3727 25.1953 62.6953C25.1953 49.018 36.3227 37.8906 50 37.8906C63.6773 37.8906 74.8047 49.018 74.8047 62.6953C74.8047 76.3727 63.6773 87.5 50 87.5Z" fill="white"/>
<path d="M74.8047 62.6953C74.8047 49.018 63.6773 37.8906 50 37.8906V87.5C63.6773 87.5 74.8047 76.3727 74.8047 62.6953Z" fill="white"/>
<path d="M46.8746 75.0001C46.4279 75.0001 45.9795 74.8981 45.5648 74.6907C44.5723 74.1946 43.9453 73.1801 43.9453 72.0704V53.3204C43.9453 52.2106 44.5723 51.1962 45.5648 50.7001C46.5574 50.2036 47.7451 50.3108 48.6328 50.9766L61.1328 60.3516C61.8705 60.9049 62.3047 61.7731 62.3047 62.6954C62.3047 63.6176 61.8705 64.4858 61.1328 65.0391L48.6328 74.4141C48.116 74.8018 47.4973 75.0001 46.8746 75.0001Z" fill="#222222"/>
<path d="M50 73.3887L61.1328 65.0391C61.8705 64.4857 62.3047 63.6176 62.3047 62.6953C62.3047 61.773 61.8705 60.9049 61.1328 60.3516L50 52.002V73.3887Z" fill="#222222"/>
</svg>
